<svg xmlns="http://www.w3.org/2000/svg" xmlns:xlink="http://www.w3.org/1999/xlink" viewBox="0 0 214 215"><defs><style>.cls-1{opacity:0.3;}.cls-2{fill:#f6efd7;}.cls-3{fill:url(#linear-gradient);}.cls-4{fill:#365918;}.cls-5{fill:#78c62c;}.cls-6{fill:#2a3f11;}.cls-7{fill:#fff;}</style><linearGradient id="linear-gradient" x1="34.94" y1="34.94" x2="172.06" y2="172.06" gradientUnits="userSpaceOnUse"><stop offset="0" stop-color="#41750e"/><stop offset="0.22" stop-color="#4d8a21"/><stop offset="0.89" stop-color="#559c20"/><stop offset="1" stop-color="#559c20"/></linearGradient></defs><g id="Layer_2" data-name="Layer 2"><g id="btn"><rect class="cls-1" x="7" y="8" width="207" height="207" rx="70"/><rect class="cls-2" width="207" height="207" rx="70"/><rect class="cls-3" x="18" y="18" width="171" height="171" rx="57.83"/><path class="cls-4" d="M178.92,43.21A57.67,57.67,0,0,0,134.17,22H78.83A57.83,57.83,0,0,0,21,79.83v55.34a57.52,57.52,0,0,0,10.08,32.62A57.52,57.52,0,0,1,18,131.17V75.83A57.83,57.83,0,0,1,75.83,18h55.34A57.74,57.74,0,0,1,178.92,43.21Z"/><path class="cls-4" d="M40.5,55.38a1.62,1.62,0,0,0,0,3.24A1.62,1.62,0,0,0,40.5,55.38Z"/><path class="cls-4" d="M47.83,39.38c-2.51,0-2.51,3.91,0,3.91S50.35,39.38,47.83,39.38Z"/><path class="cls-4" d="M54.17,44.42a1.25,1.25,0,0,0,0,2.5A1.25,1.25,0,0,0,54.17,44.42Z"/><path class="cls-4" d="M54.5,34.9a.77.77,0,0,0,0,1.53A.77.77,0,0,0,54.5,34.9Z"/><path class="cls-4" d="M61.5,27.3a1,1,0,0,0,0,2.07A1,1,0,0,0,61.5,27.3Z"/><path class="cls-4" d="M69.5,36.3a1.37,1.37,0,0,0,0,2.73A1.37,1.37,0,0,0,69.5,36.3Z"/><path class="cls-4" d="M77.5,27.28a.72.72,0,0,0,0,1.44A.72.72,0,0,0,77.5,27.28Z"/><path class="cls-4" d="M88.44,33.09Z"/><path class="cls-4" d="M90.44,34a1,1,0,0,0-.77-.6,2,2,0,0,0-.55-.08h0a3.13,3.13,0,0,0-.44-.1l-.08,0-.15-.07.13.07a2.12,2.12,0,0,0-3.07,1.25,2.08,2.08,0,0,0,2,2.64,2.71,2.71,0,0,0,2.71-1.42A1.6,1.6,0,0,0,90.44,34Z"/><path class="cls-4" d="M102.5,26.24a1.76,1.76,0,0,0,0,3.52A1.76,1.76,0,0,0,102.5,26.24Z"/><path class="cls-4" d="M111.5,34.3a.7.7,0,0,0,0,1.4A.7.7,0,0,0,111.5,34.3Z"/><path class="cls-4" d="M121.17,28.31a.36.36,0,0,0,0,.71A.36.36,0,0,0,121.17,28.31Z"/><path class="cls-4" d="M136.5,31.67a1,1,0,0,0,0,2A1,1,0,0,0,136.5,31.67Z"/><path class="cls-4" d="M139.5,39.61a.39.39,0,0,0,0,.78A.39.39,0,0,0,139.5,39.61Z"/><path class="cls-4" d="M151.5,27.18a1.49,1.49,0,0,0,0,3A1.49,1.49,0,0,0,151.5,27.18Z"/><path class="cls-4" d="M158.17,36.73a1.27,1.27,0,0,0,0,2.54A1.27,1.27,0,0,0,158.17,36.73Z"/><path class="cls-4" d="M32.5,70a1.64,1.64,0,0,0,0,3.28A1.64,1.64,0,0,0,32.5,70Z"/><path class="cls-4" d="M28.83,62.87a.8.8,0,0,0,0,1.6A.8.8,0,0,0,28.83,62.87Z"/><path class="cls-4" d="M30.5,76.85a.49.49,0,0,0,0,1A.49.49,0,0,0,30.5,76.85Z"/><path class="cls-4" d="M24.83,89.61a1.39,1.39,0,0,0,0,2.78A1.39,1.39,0,0,0,24.83,89.61Z"/><path class="cls-4" d="M29.83,97.26a1.74,1.74,0,0,0,0,3.48A1.74,1.74,0,0,0,29.83,97.26Z"/><path class="cls-4" d="M24.5,114.61a1.72,1.72,0,0,0,0,3.44A1.72,1.72,0,0,0,24.5,114.61Z"/><path class="cls-4" d="M30.17,120.85a1.49,1.49,0,0,0,0,3A1.49,1.49,0,0,0,30.17,120.85Z"/><path class="cls-4" d="M23.83,141.12a1.55,1.55,0,0,0,0,3.09A1.55,1.55,0,0,0,23.83,141.12Z"/><path class="cls-4" d="M31.17,147.65a1.68,1.68,0,0,0,0,3.36A1.68,1.68,0,0,0,31.17,147.65Z"/><path class="cls-4" d="M40.17,134.11a1.89,1.89,0,0,0,0,3.78A1.89,1.89,0,0,0,40.17,134.11Z"/><path class="cls-4" d="M41.5,73.16a1.51,1.51,0,0,0,0,3A1.51,1.51,0,0,0,41.5,73.16Z"/><path class="cls-4" d="M39.27,45.75a1.57,1.57,0,0,0-2,2,1.64,1.64,0,1,0,2-2Z"/><path class="cls-4" d="M50.65,56.18c-.14-.28-.28-.56-.43-.83a2,2,0,0,0-3.57.24,1.94,1.94,0,0,0,.26,2A2,2,0,0,0,49,58.3c.28,0,.55-.09.83-.15A1.36,1.36,0,0,0,50.65,56.18Z"/><path class="cls-4" d="M138.17,48.89a1.45,1.45,0,0,0,0,2.89A1.45,1.45,0,0,0,138.17,48.89Z"/><path class="cls-4" d="M125.5,41.91a1.76,1.76,0,0,0,0,3.51A1.76,1.76,0,0,0,125.5,41.91Z"/><path class="cls-5" d="M123.67,181h0Z"/><path class="cls-5" d="M123.69,180.94c.29-.13.18-.09,0,0Z"/><path class="cls-5" d="M126.16,182.37h0s0,0,0-.06v0l0,0c0-.06,0-.13,0-.23v0c0-.15,0-.27,0-.28a1.45,1.45,0,0,0-1-1,1.87,1.87,0,0,0-1.37.19l-.38.21a2,2,0,0,0-.53.59,2.53,2.53,0,0,0,0,2.59,2,2,0,0,0,3.37-2Z"/><path class="cls-5" d="M133.17,175.28a.05.05,0,1,0,0,.1A.05.05,0,0,0,133.17,175.28Z"/><path class="cls-5" d="M137.25,177.72a1.4,1.4,0,0,0-.35-.45,1,1,0,0,0-1.47,1.46,1.93,1.93,0,0,0,.45.36A1,1,0,0,0,137.25,177.72Z"/><path class="cls-5" d="M148.83,173.46a1.54,1.54,0,0,0,0,3.08A1.54,1.54,0,0,0,148.83,173.46Z"/><path class="cls-5" d="M158.5,152a1,1,0,0,0,0,1.92A1,1,0,0,0,158.5,152Z"/><path class="cls-5" d="M166.17,160.26a1.41,1.41,0,0,0,0,2.81A1.41,1.41,0,0,0,166.17,160.26Z"/><path class="cls-5" d="M179.5,151.75a1.25,1.25,0,0,0,0,2.5A1.25,1.25,0,0,0,179.5,151.75Z"/><path class="cls-5" d="M168.7,129.37a1.13,1.13,0,0,0-1.61.66,1.07,1.07,0,0,1-.24.33,4.28,4.28,0,0,0-.69.4.65.65,0,0,0,.32,1.19,3.2,3.2,0,0,0,2.44-.86A1.11,1.11,0,0,0,168.7,129.37Z"/><path class="cls-5" d="M177.17,120.05c-2.94,0-2.95,4.57,0,4.57S180.11,120.05,177.17,120.05Z"/><path class="cls-5" d="M174.83,103.16a1.84,1.84,0,0,0,0,3.68A1.84,1.84,0,0,0,174.83,103.16Z"/><path class="cls-5" d="M183.5,89.18a.82.82,0,0,0,0,1.64A.82.82,0,0,0,183.5,89.18Z"/><path class="cls-5" d="M112.83,171.16a1.84,1.84,0,0,0,0,3.68A1.84,1.84,0,0,0,112.83,171.16Z"/><path class="cls-5" d="M101,177a.88.88,0,0,0,.3,1.53l.86.29a.13.13,0,0,0,.17-.13c0-.34,0-.67.08-1A.88.88,0,0,0,101,177Z"/><path class="cls-5" d="M77.83,179.11a1.89,1.89,0,0,0,0,3.78A1.89,1.89,0,0,0,77.83,179.11Z"/><path class="cls-5" d="M63.5,175.85a1.49,1.49,0,0,0,0,3A1.49,1.49,0,0,0,63.5,175.85Z"/><path class="cls-5" d="M54.62,178.07a1,1,0,0,0-.82-1.14,1.32,1.32,0,1,0-.69,2.55,1.21,1.21,0,0,0,1.52-1.16C54.63,178.24,54.62,178.15,54.62,178.07Z"/><path class="cls-5" d="M162.5,168.46a1.21,1.21,0,0,0,0,2.42A1.21,1.21,0,0,0,162.5,168.46Z"/><path class="cls-5" d="M150.5,169.1a1.23,1.23,0,0,0,0,2.46A1.23,1.23,0,0,0,150.5,169.1Z"/><path class="cls-5" d="M156.83,174.6c-2.66,0-2.67,4.14,0,4.14S159.5,174.6,156.83,174.6Z"/><rect class="cls-6" x="64.5" y="112.5" width="89" height="25" rx="12.5" transform="translate(234 16) rotate(90)"/><circle class="cls-6" cx="109" cy="61" r="12.5"/><rect class="cls-7" x="59.5" y="107.5" width="89" height="25" rx="12.5" transform="translate(224 16) rotate(90)"/><circle class="cls-7" cx="104" cy="56" r="12.5"/></g></g></svg>