<svg xmlns="http://www.w3.org/2000/svg" xmlns:xlink="http://www.w3.org/1999/xlink" viewBox="0 0 149.79 146.97"><defs><style>.cls-1{opacity:0.3;}.cls-2{fill:#f6efd7;}.cls-3{fill:url(#linear-gradient);}.cls-4{fill:#365918;}.cls-5{fill:#78c62c;}.cls-6{fill:#2a3f11;}.cls-7{fill:#fff;}</style><linearGradient id="linear-gradient" x1="1666.89" y1="-834.57" x2="1738.31" y2="-763.16" gradientTransform="matrix(0.94, -0.34, 0.34, 0.94, -1255.17, 1404.53)" gradientUnits="userSpaceOnUse"><stop offset="0" stop-color="#41750e"/><stop offset="0.22" stop-color="#4d8a21"/><stop offset="0.89" stop-color="#559c20"/><stop offset="1" stop-color="#559c20"/></linearGradient></defs><g id="Layer_2" data-name="Layer 2"><g id="btn"><circle class="cls-1" cx="78.27" cy="75.45" r="71.5"/><circle class="cls-2" cx="71.52" cy="71.52" r="71.5"/><circle class="cls-3" cx="71.52" cy="71.52" r="50.5"/><path class="cls-4" d="M94.14,26.36a50.51,50.51,0,0,0-42.68,91.51A50.51,50.51,0,1,1,94.14,26.36Z"/><path class="cls-5" d="M66.93,116.59a2,2,0,0,0-2.63-.78,1.87,1.87,0,0,0-.81,2v.1a1.86,1.86,0,0,0,.85,1.11,2.07,2.07,0,0,0,1.43.18h.09A1.8,1.8,0,0,0,66.93,116.59Z"/><path class="cls-5" d="M71.89,107.64a1.35,1.35,0,0,0,0,2.69A1.35,1.35,0,0,0,71.89,107.64Z"/><path class="cls-5" d="M78.14,112.1a1.14,1.14,0,0,0,0,2.27A1.14,1.14,0,0,0,78.14,112.1Z"/><path class="cls-5" d="M87.39,111.43a1.06,1.06,0,0,0,0,2.11A1.06,1.06,0,0,0,87.39,111.43Z"/><path class="cls-5" d="M93.89,108.88a.36.36,0,0,0,0,.71A.36.36,0,0,0,93.89,108.88Z"/><path class="cls-5" d="M87.39,97a1.53,1.53,0,0,0,0,3.05A1.53,1.53,0,0,0,87.39,97Z"/><path class="cls-5" d="M96.14,94.6a.88.88,0,0,0,0,1.76A.88.88,0,0,0,96.14,94.6Z"/><path class="cls-5" d="M103.65,96.3l-.73-.46a1,1,0,1,0,0,1.79l.73-.46A.51.51,0,0,0,103.65,96.3Z"/><path class="cls-5" d="M100.14,84a.28.28,0,0,0,0,.55A.28.28,0,0,0,100.14,84Z"/><path class="cls-5" d="M107.39,76.15a1.59,1.59,0,0,0,0,3.17A1.59,1.59,0,0,0,107.39,76.15Z"/><path class="cls-5" d="M113.89,74.78a1,1,0,0,0,0,1.91A1,1,0,0,0,113.89,74.78Z"/><path class="cls-5" d="M110.39,61.32a.41.41,0,0,0,0,.82A.41.41,0,0,0,110.39,61.32Z"/><path class="cls-5" d="M112.39,84.72c-2.91,0-2.92,4.53,0,4.53S115.32,84.72,112.39,84.72Z"/><path class="cls-5" d="M110.14,95.54a1.19,1.19,0,0,0,0,2.38A1.19,1.19,0,0,0,110.14,95.54Z"/><path class="cls-5" d="M111.64,57a1.47,1.47,0,0,0,0,2.93A1.47,1.47,0,0,0,111.64,57Z"/><path class="cls-5" d="M103.89,43.25a1.49,1.49,0,0,0,0,3A1.49,1.49,0,0,0,103.89,43.25Z"/><path class="cls-5" d="M56.39,108a1.45,1.45,0,0,0,0,2.89A1.45,1.45,0,0,0,56.39,108Z"/><path class="cls-5" d="M46.39,105.12a.86.86,0,0,0,0,1.72A.86.86,0,0,0,46.39,105.12Z"/><path class="cls-4" d="M39.14,97.44a1.8,1.8,0,0,0,0,3.59A1.8,1.8,0,0,0,39.14,97.44Z"/><path class="cls-4" d="M35.89,91.29a1.45,1.45,0,0,0,0,2.89A1.45,1.45,0,0,0,35.89,91.29Z"/><path class="cls-4" d="M32.14,81.15a1.59,1.59,0,0,0,0,3.17A1.59,1.59,0,0,0,32.14,81.15Z"/><path class="cls-4" d="M31.39,66.42c-3.29,0-3.29,5.12,0,5.12S34.69,66.42,31.39,66.42Z"/><path class="cls-4" d="M45.64,66.82c-2.46,0-2.46,3.83,0,3.83A1.92,1.92,0,0,0,45.64,66.82Z"/><path class="cls-4" d="M48.89,70a1.23,1.23,0,0,0,0,2.46A1.23,1.23,0,0,0,48.89,70Z"/><path class="cls-4" d="M35.64,81.11a1.88,1.88,0,0,0,0,3.75A1.88,1.88,0,0,0,35.64,81.11Z"/><path class="cls-4" d="M40.19,54.62c-1.14-.76-2.17-1.69-3.38-2.34a.82.82,0,0,0-1.18.91,8,8,0,0,0,2.64,3.92,1.58,1.58,0,1,0,1.92-2.49Z"/><path class="cls-4" d="M36.64,47.7a1,1,0,0,0,0,2.07A1,1,0,0,0,36.64,47.7Z"/><path class="cls-4" d="M47.64,48.87a1.12,1.12,0,0,0,0,2.23A1.12,1.12,0,0,0,47.64,48.87Z"/><path class="cls-4" d="M52.14,46.94a1.29,1.29,0,0,0,0,2.58A1.29,1.29,0,0,0,52.14,46.94Z"/><path class="cls-4" d="M48.39,35.5a1.74,1.74,0,0,0,0,3.47A1.74,1.74,0,0,0,48.39,35.5Z"/><path class="cls-4" d="M61.39,26.8c-2.48,0-2.49,3.87,0,3.87S63.89,26.8,61.39,26.8Z"/><path class="cls-4" d="M69.39,32.65a1.84,1.84,0,0,0,0,3.67A1.84,1.84,0,0,0,69.39,32.65Z"/><path class="cls-4" d="M74.39,40.54c-3.46,0-3.47,5.39,0,5.39S77.87,40.54,74.39,40.54Z"/><path class="cls-4" d="M87.14,27.28a1.7,1.7,0,0,0,0,3.4A1.7,1.7,0,0,0,87.14,27.28Z"/><path class="cls-6" d="M87,69.44,97.15,47.66a7.72,7.72,0,1,0-14-6.52L73,62.91,51.23,52.76a7.72,7.72,0,0,0-6.53,14L66.48,76.9,56.32,98.68a7.72,7.72,0,1,0,14,6.52L80.47,83.43l21.77,10.15a7.72,7.72,0,1,0,6.53-14Z"/><path class="cls-7" d="M81.69,68.53,91.84,46.75a7.72,7.72,0,1,0-14-6.52L67.7,62,45.92,51.85a7.72,7.72,0,0,0-6.52,14L61.17,76,51,97.77a7.72,7.72,0,0,0,14,6.52L75.16,82.52,96.94,92.67a7.72,7.72,0,1,0,6.52-14Z"/></g></g></svg>